# xmcd
#
# Track frame offsets:
#	150
#	16800
#	29855
#	43357
#	60572
#	77685
#	93147
#	110992
#	130002
#	144942
#	157705
#	173522
#	188185
#	201880
#	217332
#	234342
#	246395
#	261535
#
# Disc length: 3714 seconds
# Revision: 2
# Processed by: cddbd v1.5.2PL0 Copyright (c) Steve Scherf et al.
# Submitted via: dBpowerAMP V12.0
#
DISCID=010e8012
DTITLE=Various Artist - Men in Country
DYEAR=1997
DGENRE=Country
TTITLE0=Mavericks, The - Here Comes the Rain
TTITLE1=Dwight Yoakam - Pocket of a Clown
TTITLE2=Vince Gill - A Little More Love
TTITLE3=Tim McGraw - Maybe We Should Just Sleep on It
TTITLE4=Billy Ray Cyrus - Storm in the Heartland
TTITLE5=Hal Ketchum - I Know Where Love Lives
TTITLE6=John Michael Montgomery - I Love the Way You Love Me
TTITLE7=Clint Black - Like the Rain
TTITLE8=Sammy Kershaw - Third Rate Romance
TTITLE9=Sawyer Brown - The Dirt Road
TTITLE10=Travis Tritt - Ten Feet Tall and Bulletproof
TTITLE11=Neal McCoy - They're Playin' Our Song
TTITLE12=Rick Trevino - Running out of Reasons to Run
TTITLE13=Radney Foster - Nobody Wins
TTITLE14=Collin Raye - On the Verge
TTITLE15=Bob Woodruff - Almost Saturday Night
TTITLE16=Keb Mo - Just Like You
TTITLE17=Kevin Welch - Life Down Here on Earth
EXTD=
EXTT0=
EXTT1=
EXTT2=
EXTT3=
EXTT4=
EXTT5=
EXTT6=
EXTT7=
EXTT8=
EXTT9=
EXTT10=
EXTT11=
EXTT12=
EXTT13=
EXTT14=
EXTT15=
EXTT16=
EXTT17=
PLAYORDER=
